<svg width="32" height="32" xmlns="http://www.w3.org/2000/svg"><g fill="none" fill-rule="evenodd"><path d="M26 22v4h-2v2h-4v2H10v-2H6v-2H4v-4H2v-6h2v-4h2v-2h4V8h10v2h4v2h2v4h2v6h-2z" fill="#EEC"/><path d="M12 2V0h8v4h-2v2h4v2h4v2h2v2h2v4h2v6h-2v4h-2v2h-2v2h-4v2H10v-2h10v-2h4v-2h2v-4h2v-6h-2v-4h-2v-2h-4V8H10V6h2V4h-2V2h2zm2 4h2V4h-2v2zM6 28h4v2H6v-2zm-2-2h2v2H4v-2zm-2-4h2v4H2v-4zm-2-6h2v6H0v-6zm2-4h2v4H2v-4zm2-2h2v2H4v-2zm2-2h4v2H6V8z" fill="#000"/><path d="M16 16h2v2h-2v-2zm2-2h2v2h-2v-2zm2-2h2v2h-2v-2zm2-2h2v2h-2v-2z" fill="#E44"/><path d="M10 0h2v2h-2V0zm4 4h2v2h-2V4z" fill="#EEC"/><path fill="#000" d="M14 18h2v2h-2z"/></g></svg>
