<svg width="22" height="22" xmlns="http://www.w3.org/2000/svg"><g fill="none" fill-rule="evenodd"><path d="M2 0h2v2H2V0zm2 2h4v2H4V2zm4 2h4v2H8V4zm4 2h4v2h-4V6zm4 2h4v2h-4V8zm-2 4h2v2h-2v-2zm2 2h2v2h-2v-2zm2 2h2v2h-2v-2zm2 2h2v2h-2v-2z" fill="#EBF3D6"/><path d="M8 16h2v4H7v-4H6v-4h2v4zM0 2h2v2H0V2zm2 2h2v4H2V4zm2 4h2v4H4V8zm8 6h2v2h-2v-2zm2 2h2v2h-2v-2zm2 2h2v2h-2v-2zm2 2h2v2h-2v-2z" fill="#000"/><path d="M16 12h-2v2h-2v6h-2v-4H8v-4H6V8H4V4h4v2h4v2h4v2h4v2h-4zM0 0h2v2H0V0zm2 2h2v2H2V2zm12 12h2v2h-2v-2zm2 2h2v2h-2v-2zm2 2h2v2h-2v-2zm2 2h2v2h-2v-2z" fill="#E75D55"/></g></svg>
