<svg width="170" height="44" xmlns="http://www.w3.org/2000/svg">
    <g fill="none" fill-rule="evenodd">
        <path fill="#AAA" d="M0 0h84v44H0z" />
        <path
            d="M63.5 26h.5V12h-1v12H12v2h51.5zM9 10h2v2H9v-2zm0 2h1v18H9V12zm1 16h60v2H10v-2zm58-18h2v2h-2v-2zm1 2h1v16h-1V12zm-7-2h2v2h-2v-2zm-50 0h1v14h-1V10zm1 0h1v2h-1v-2z"
            fill="#AAA" fill-rule="nonzero" />
        <path fill="#000" d="M75 10V8H6v2H5v24h1v2h69v-2h1V10z" />
        <path fill="#FFF" d="M6 10h69v24H6z" />
        <path
            d="M17 16h5v2h-5v-2zm28 2h1v2h-1v-2zm1 2h1v2h-1v-2zm1 2h1v2h-1v-2zm0-4h1v2h-1v-2zm1 2h1v2h-1v-2zm1 2h1v2h-1v-2zm0-4h1v2h-1v-2zm1 2h1v2h-1v-2zm1 2h1v2h-1v-2zm0-4h1v2h-1v-2zm1 2h1v2h-1v-2zm1 2h1v2h-1v-2zm-1-6h1v2h-1v-2zm1 2h1v2h-1v-2zm1 2h1v2h-1v-2zm-1-6h1v2h-1v-2zm1 2h1v2h-1v-2zm1 2h1v2h-1v-2zm0-4h1v2h-1v-2zm2 0h1v2h-1v-2zm-1 2h1v2h-1v-2z"
            fill="#000" fill-rule="nonzero" />
        <path
            d="M63.5 28h.5V14h-1v12H12v2h51.5zM9 12h2v2H9v-2zm0 2h1v18H9V14zm1 16h60v2H10v-2zm58-18h2v2h-2v-2zm1 2h1v16h-1V14zm-7-2h2v2h-2v-2zm-50 0h1v14h-1V12zm1 0h1v2h-1v-2z"
            fill="#AAA" fill-rule="nonzero" />
        <path d="M0 0h85v2H0V0zm0 2h1v40H0V2z" fill="#FFF" />
        <path d="M0 42h85v2H0v-2zM84 0h1v42h-1V0z" fill="#000" fill-rule="nonzero" />
        <path fill="#AAA" d="M85 0h85v44H85z" />
        <path d="M159 9h7v28H95v-4h-5V5h69v4zM89 7h1v24h-1V7zm70 0h1v2h-1V7z" fill="#000" fill-rule="nonzero" />
        <path fill="#FFF" d="M90 7h69v24H90z" />
        <path
            d="M147.5 25h.5V11h-1v12H96v2h51.5zM93 9h2v2h-2V9zm0 2h1v18h-1V11zm1 16h60v2H94v-2zm58-18h2v2h-2V9zm1 2h1v16h-1V11zm-7-2h2v2h-2V9zM96 9h1v14h-1V9zm1 0h1v2h-1V9z"
            fill="#AAA" />
        <path
            d="M128 15h4v2h-4v-2zm1 2h4v2h-4v-2zm1 2h6v2h-6v-2zm4-2h3v2h-3v-2zm-1-2h5v2h-5v-2zm2-2h4v2h-4v-2zm1-2h4v2h-4v-2zm5 0h1v2h-1v-2zm-1 2h1v2h-1v-2zm-1 2h1v2h-1v-2zm-1 2h1v2h-1v-2zm-1 2h1v2h-1v-2zm-36-8h5v2h-5v-2zm0 4h5v2h-5v-2zm2 2h1v2h-1v-2zm-3 0h1v2h-1v-2zm0-4h1v2h-1v-2zm0-4h1v2h-1V9zm3 0h1v2h-1V9zm3 0h1v2h-1V9zm0 4h1v2h-1v-2zm0 4h1v2h-1v-2z"
            fill="#000" fill-rule="nonzero" />
        <path fill="#6687BA" d="M101 13h5v2h-5z" />
        <g fill-rule="nonzero">
            <path d="M85 0h85v2H85V0zm0 2h1v40h-1V2z" fill="#000" />
            <path d="M85 42h85v2H85v-2zm84-40h1v40h-1V2z" fill="#FFF" />
        </g>
    </g>
</svg>