<svg height="512" viewBox="0 0 512 512" width="512" xmlns="http://www.w3.org/2000/svg"><g fill="none" fill-rule="evenodd"><path d="m0 0h512v512h-512z" fill="#401040"/><g transform="translate(91 106)"><path d="m290 0h36v4h-36z" fill="#f00020"/><path d="m286 4h36v4h-36z" fill="#f00010"/><path d="m284 8h36v4h-36z" fill="#f00010"/><path d="m282 12h36v4h-36z" fill="#f00000"/><path d="m280 16h36v4h-36z" fill="#f00000"/><path d="m276 20h36v4h-36z" fill="#f00000"/><path d="m274 24h36v4h-36z" fill="#f01000"/><path d="m272 28h36v4h-36z" fill="#f01000"/><path d="m270 32h36v4h-36z" fill="#f02000"/><path d="m268 36h36v4h-36z" fill="#f02000"/><path d="m264 40h36v4h-36z" fill="#f03000"/><path d="m262 44h36v4h-36z" fill="#f03000"/><path d="m260 48h36v4h-36z" fill="#f04000"/><path d="m258 52h36v4h-36z" fill="#f04000"/><path d="m254 56h36v4h-36z" fill="#f05000"/><path d="m252 60h36v4h-36z" fill="#f05000"/><path d="m250 64h36v4h-36z" fill="#f06000"/><path d="m248 68h36v4h-36z" fill="#f06000"/><path d="m246 72h36v4h-36z" fill="#f07000"/><path d="m242 76h36v4h-36z" fill="#f07000"/><path d="m240 80h36v4h-36z" fill="#f08000"/><path d="m238 84h36v4h-36z" fill="#f08000"/><path d="m236 88h36v4h-36z" fill="#f09000"/><path d="m234 92h36v4h-36z" fill="#f09000"/><path d="m230 96h36v4h-36z" fill="#f0a000"/><path d="m228 100h36v4h-36z" fill="#f0a000"/><path d="m226 104h36v4h-36z" fill="#f0b000"/><path d="m224 108h36v4h-36z" fill="#f0b000"/><path d="m220 112h36v4h-36z" fill="#f0c000"/><path d="m218 116h36v4h-36z" fill="#f0c000"/><path d="m216 120h36v4h-36z" fill="#f0d000"/><path d="m214 124h36v4h-36z" fill="#f0d000"/><path d="m212 128h36v4h-36z" fill="#f0e000"/><path d="m208 132h36v4h-36z" fill="#f0e000"/><g fill="#f0f000"><path d="m206 136h36v4h-36z"/><path d="m204 140h36v4h-36z"/><path d="m202 144h36v4h-36z"/><path d="m200 148h36v4h-36z"/><path d="m196 152h36v4h-36z"/><path d="m194 156h36v4h-36z"/><path d="m192 160h36v4h-36z"/></g><path d="m190 164h36v4h-36z" fill="#e0f000"/><path d="m186 168h36v4h-36z" fill="#e0f000"/><path d="m184 172h36v4h-36z" fill="#d0f000"/><path d="m182 176h36v4h-36z" fill="#d0f000"/><path d="m180 180h36v4h-36z" fill="#c0f000"/><path d="m178 184h36v4h-36z" fill="#c0f000"/><path d="m174 188h36v4h-36z" fill="#b0f000"/><path d="m172 192h36v4h-36z" fill="#b0f000"/><path d="m170 196h36v4h-36z" fill="#a0f000"/><path d="m168 200h36v4h-36z" fill="#a0f000"/><path d="m164 204h36v4h-36z" fill="#90f000"/><path d="m162 208h36v4h-36z" fill="#90f000"/><path d="m160 212h36v4h-36z" fill="#80f000"/><path d="m158 216h36v4h-36z" fill="#80f000"/><path d="m156 220h36v4h-36z" fill="#70f000"/><path d="m152 224h36v4h-36z" fill="#70f000"/><path d="m150 228h36v4h-36z" fill="#60f000"/><path d="m148 232h36v4h-36z" fill="#60f000"/><path d="m146 236h36v4h-36z" fill="#50f000"/><path d="m144 240h36v4h-36z" fill="#50f000"/><path d="m140 244h36v4h-36z" fill="#40f000"/><path d="m138 248h36v4h-36z" fill="#40f000"/><path d="m136 252h36v4h-36z" fill="#30f000"/><path d="m134 256h36v4h-36z" fill="#30f000"/><path d="m130 260h36v4h-36z" fill="#20f000"/><path d="m128 264h36v4h-36z" fill="#20f000"/><path d="m126 268h36v4h-36z" fill="#10f000"/><path d="m124 272h36v4h-36z" fill="#10f000"/><path d="m122 276h36v4h-36z" fill="#00f000"/><path d="m118 280h36v4h-36z" fill="#00f000"/><path d="m116 284h36v4h-36z" fill="#00f020"/><path d="m114 288h36v4h-36z" fill="#00f040"/><path d="m112 292h36v4h-36z" fill="#00f060"/><path d="m110 296h36v4h-36z" fill="#00f080"/><path d="m50 200h36v4h-36z" fill="#0030f0"/><path d="m54 204h36v4h-36z" fill="#0040f0"/><path d="m56 208h36v4h-36z" fill="#0040e0"/><path d="m58 212h36v4h-36z" fill="#0050e0"/><path d="m60 216h36v4h-36z" fill="#0050d0"/><path d="m64 220h36v4h-36z" fill="#0060d0"/><path d="m66 224h36v4h-36z" fill="#0060c0"/><path d="m68 228h36v4h-36z" fill="#0070c0"/><path d="m70 232h36v4h-36z" fill="#0080c0"/><path d="m74.105263 236h36v4h-36z" fill="#0090c0"/><path d="m75.947368 240h36v4h-36z" fill="#00a0c0"/><path d="m78 244h36v4h-36z" fill="#00b0c0"/><path d="m80 248h36v4h-36z" fill="#00c0c0"/><path d="m84 252h36v4h-36z" fill="#00d0c0"/><path d="m86 256h36v4h-36z" fill="#00e0c0"/><path d="m88 260h36v4h-36z" fill="#00f0c0"/><path d="m90 264h36v4h-36z" fill="#00f0b0"/><path d="m92 268h34v4h-34z" fill="#00f0b0"/><path d="m94 272h30v4h-30z" fill="#00f0a0"/><path d="m96 276h26v4h-26z" fill="#00f0a0"/><path d="m98.052632 280h20v4h-20z" fill="#00f090"/><path d="m102 284h14v4h-14z" fill="#00f090"/><path d="m104 288h10v4h-10z" fill="#00f080"/><path d="m108 292h4v4h-4z" fill="#00f080"/><path d="m240 0h36v4h-36z" fill="#f00020"/><path d="m236 4h36v4h-36z" fill="#f00010"/><path d="m234 8h36v4h-36z" fill="#f00010"/><path d="m232 12h36v4h-36z" fill="#f00000"/><path d="m230 16h36v4h-36z" fill="#f00000"/><path d="m226 20h36v4h-36z" fill="#f00000"/><path d="m224 24h36v4h-36z" fill="#f01000"/><path d="m222 28h36v4h-36z" fill="#f01000"/><path d="m220 32h36v4h-36z" fill="#f02000"/><path d="m218 36h36v4h-36z" fill="#f02000"/><path d="m214 40h36v4h-36z" fill="#f03000"/><path d="m212 44h36v4h-36z" fill="#f03000"/><path d="m210 48h36v4h-36z" fill="#f04000"/><path d="m208 52h36v4h-36z" fill="#f04000"/><path d="m204 56h36v4h-36z" fill="#f05000"/><path d="m202 60h36v4h-36z" fill="#f05000"/><path d="m200 64h36v4h-36z" fill="#f06000"/><path d="m198 68h36v4h-36z" fill="#f06000"/><path d="m196 72h36v4h-36z" fill="#f07000"/><path d="m192 76h36v4h-36z" fill="#f07000"/><path d="m190 80h36v4h-36z" fill="#f08000"/><path d="m188 84h36v4h-36z" fill="#f08000"/><path d="m186 88h36v4h-36z" fill="#f09000"/><path d="m184 92h36v4h-36z" fill="#f09000"/><path d="m180 96h36v4h-36z" fill="#f0a000"/><path d="m178 100h36v4h-36z" fill="#f0a000"/><path d="m176 104h36v4h-36z" fill="#f0b000"/><path d="m174 108h36v4h-36z" fill="#f0b000"/><path d="m170 112h36v4h-36z" fill="#f0c000"/><path d="m168 116h36v4h-36z" fill="#f0c000"/><path d="m166 120h36v4h-36z" fill="#f0d000"/><path d="m164 124h36v4h-36z" fill="#f0d000"/><path d="m162 128h36v4h-36z" fill="#f0e000"/><path d="m158 132h36v4h-36z" fill="#f0e000"/><path d="m156 136h36v4h-36z" fill="#f0f000"/><path d="m154 140h36v4h-36z" fill="#f0f000"/><path d="m152 144h36v4h-36z" fill="#f0f000"/><path d="m150 148h36v4h-36z" fill="#f0f000"/><path d="m146 152h36v4h-36z" fill="#f0f000"/><path d="m144 156h36v4h-36z" fill="#f0f000"/><path d="m142 160h36v4h-36z" fill="#f0f000"/><path d="m140 164h36v4h-36z" fill="#e0f000"/><path d="m136 168h36v4h-36z" fill="#e0f000"/><path d="m134 172h36v4h-36z" fill="#d0f000"/><path d="m132 176h36v4h-36z" fill="#d0f000"/><path d="m130 180h36v4h-36z" fill="#c0f000"/><path d="m128 184h36v4h-36z" fill="#c0f000"/><path d="m124 188h36v4h-36z" fill="#b0f000"/><path d="m122 192h36v4h-36z" fill="#b0f000"/><path d="m120 196h36v4h-36z" fill="#a0f000"/><path d="m118 200h36v4h-36z" fill="#a0f000"/><path d="m114 204h36v4h-36z" fill="#90f000"/><path d="m112 208h36v4h-36z" fill="#90f000"/><path d="m110 212h36v4h-36z" fill="#80f000"/><path d="m108 216h36v4h-36z" fill="#80f000"/><path d="m106 220h36v4h-36z" fill="#70f000"/><path d="m102 224h36v4h-36z" fill="#70f000"/><path d="m100 228h36v4h-36z" fill="#60f000"/><path d="m98 232h36v4h-36z" fill="#60f000"/><path d="m96 236h36v4h-36z" fill="#50f000"/><path d="m94 240h36v4h-36z" fill="#50f000"/><path d="m90 244h36v4h-36z" fill="#40f000"/><path d="m88 248h36v4h-36z" fill="#40f000"/><path d="m86 252h36v4h-36z" fill="#30f000"/><path d="m84 256h36v4h-36z" fill="#30f000"/><path d="m80 260h36v4h-36z" fill="#20f000"/><path d="m78 264h36v4h-36z" fill="#20f000"/><path d="m76 268h36v4h-36z" fill="#10f000"/><path d="m74 272h36v4h-36z" fill="#10f000"/><path d="m72 276h36v4h-36z" fill="#00f000"/><path d="m68 280h36v4h-36z" fill="#00f000"/><path d="m66 284h36v4h-36z" fill="#00f020"/><path d="m64 288h36v4h-36z" fill="#00f040"/><path d="m62 292h36v4h-36z" fill="#00f060"/><path d="m60 296h36v4h-36z" fill="#00f080"/><path d="m0 200h36v4h-36z" fill="#0030f0"/><path d="m4 204h36v4h-36z" fill="#0040f0"/><path d="m6 208h36v4h-36z" fill="#0040e0"/><path d="m8 212h36v4h-36z" fill="#0050e0"/><path d="m10 216h36v4h-36z" fill="#0050d0"/><path d="m14 220h36v4h-36z" fill="#0060d0"/><path d="m16 224h36v4h-36z" fill="#0060c0"/><path d="m18 228h36v4h-36z" fill="#0070c0"/><path d="m20 232h36v4h-36z" fill="#0080c0"/><path d="m24.105263 236h36v4h-36z" fill="#0090c0"/><path d="m25.947368 240h36v4h-36z" fill="#00a0c0"/><path d="m28 244h36v4h-36z" fill="#00b0c0"/><path d="m30 248h36v4h-36z" fill="#00c0c0"/><path d="m34 252h36v4h-36z" fill="#00d0c0"/><path d="m36 256h36v4h-36z" fill="#00e0c0"/><path d="m38 260h36v4h-36z" fill="#00f0c0"/><path d="m40 264h36v4h-36z" fill="#00f0b0"/><path d="m44 268h32v4h-32z" fill="#00f0b0"/><path d="m46 272h28v4h-28z" fill="#00f0a0"/><path d="m48 276h24v4h-24z" fill="#00f0a0"/><path d="m50.052632 280h18v4h-18z" fill="#00f090"/><path d="m54 284h12v4h-12z" fill="#00f090"/><path d="m56 288h8v4h-8z" fill="#00f080"/><path d="m58 292h4v4h-4z" fill="#00f080"/><path d="m98 216h2v4h-4v-4h-2v-4h-2v-4h-2v-4h4v4h2v4h2zm-20 48v4h-2v-4h-2v-4h-2v-4h-2v-4h4v4h2v4h2zm-10-16h2v4h-4v-4h-2v-4h-2v-4h-2v-4h4v4h2v4h2zm-10-16h2v4h-4v-4h-2v-4h-2v-4h-2v-4h4v4h2v4h2zm-10-16h2v4h-4v-4h-2v-4h-2v-4h-2v-4h4v4h2v4h2zm78 40v4h-6v-4h2v-4h2v-4h2v-4h4v4h-2v4h-2zm-28 40v-4h2v-4h2v-4h2v-4h4v4h-2v4h-2v4h-2v4h-2v4h-4v-4zm12-20v-4h2v-4h2v-4h2v-4h4v4h-2v4h-2v4h-2v4h-2v4h-4v-4zm22-36v-4h2v-4h2v-4h2v-4h4v4h-2v4h-2v4h-2v4h-2v4h-4v-4zm12-20v-4h2v-4h2v-4h2v-4h4v4h-2v4h-2v4h-2v4h-2v4h-4v-4zm14-20v4h-4v-4h2v-4h2v-4h2v-4h4v4h-2v4h-2v4zm8-16v-4h2v-4h2v-4h2v-4h4v4h-2v4h-2v4h-2v4h-2v4h-4v-4zm14-20v4h-4v-4h2v-4h2v-4h2v-4h4v4h-2v4h-2v4zm8-16v-4h2v-4h2v-4h2v-4h4v4h-2v4h-2v4h-2v4h-2v4h-4v-4zm12-20v-4h2v-4h2v-4h2v-4h4v4h-2v4h-2v4h-2v4h-2v4h-4v-4zm14-20v4h-4v-4h2v-4h2v-4h2v-4h4v4h-2v4h-2v4zm8-16v-4h2v-4h2v-4h2v-4h4v4h-2v4h-2v4h-2v4h-2v4h-4v-4zm12-20v-4h2v-4h2v-4h2v-4h4v4h-2v4h-2v4h-2v4h-2v4h-4v-4zm14-20v4h-4v-4h2v-4h2v-4h2v-4h4v4h-2v4h-2v4zm8-16v-4h2v-4h2v-4h2v-4h4v4h-2v4h-2v4h-2v4h-2v4h-4v-4zm14-20v4h-4v-4h2v-4h2v-4h2v-4h4v4h-2v4h-2v4zm6-16h4v4h-4zm-240 200h4v4h-4zm50 0h4v4h-4zm14 20h4v4h-4z" fill="#908070"/><path d="m124 256v-4h-1-1v4 4h2v4h2v4h2v-4-4h-2v-4h-2-2zm-26-40h2v4h-4v-4h-2v-4h-2v-4h-2v-4h4v4h2v4h2zm76 40v4h-4v-4h2v-4h2v-4h2v-4h4v4h-2v4h-2v4zm-26 40v-4h2v-4h2v-4h2v-4h4v4h-2v4h-2v4h-2v4h-2v4h-4v-4zm12-20v-4h2v-4h2v-4h2v-4h4v4h-2v4h-2v4h-2v4h-2v4h-4v-4zm22-36v-4h2v-4h2v-4h2v-4h4v4h-2v4h-2v4h-2v4h-2v4h-4v-4zm12-20v-4h2v-4h2v-4h2v-4h4v4h-2v4h-2v4h-2v4h-2v4h-4v-4zm14-20v4h-4v-4h2v-4h2v-4h2v-4h4v4h-2v4h-2v4zm8-16v-4h2v-4h2v-4h2v-4h4v4h-2v4h-2v4h-2v4h-2v4h-4v-4zm14-20v4h-4v-4h2v-4h2v-4h2v-4h4v4h-2v4h-2v4zm8-16v-4h2v-4h2v-4h2v-4h4v4h-2v4h-2v4h-2v4h-2v4h-4v-4zm12-20v-4h2v-4h2v-4h2v-4h4v4h-2v4h-2v4h-2v4h-2v4h-4v-4zm14-20v4h-4v-4h2v-4h2v-4h2v-4h4v4h-2v4h-2v4zm8-16v-4h2v-4h2v-4h2v-4h4v4h-2v4h-2v4h-2v4h-2v4h-4v-4zm12-20v-4h2v-4h2v-4h2v-4h4v4h-2v4h-2v4h-2v4h-2v4h-4v-4zm14-20v4h-4v-4h2v-4h2v-4h2v-4h4v4h-2v4h-2v4zm8-16v-4h2v-4h2v-4h2v-4h4v4h-2v4h-2v4h-2v4h-2v4h-4v-4zm14-20v4h-4v-4h2v-4h2v-4h2v-4h4v4h-2v4h-2v4zm6-16h4v4h-4zm-240 200h4v4h-4zm14 20h4v4h-4z" fill="#908070"/></g></g></svg>