<svg width="65" height="38" viewBox="0 0 65 38" fill="none" xmlns="http://www.w3.org/2000/svg">
<path fill-rule="evenodd" clip-rule="evenodd" d="M0 0H65V38H0V0Z" fill="#AAAAAA"/>
<path d="M5 14H58V32H5V14ZM57 8H58V14H57V8Z" fill="black"/>
<path fill-rule="evenodd" clip-rule="evenodd" d="M6 16H57V30H6V16Z" fill="white"/>
<path d="M24 20H25V26H24V20ZM38 20H39V26H38V20ZM25 26H38V28H25V26ZM27 20H36V22H27V20ZM27 22H30V24H27V22ZM31 22H32V24H31V22ZM33 22H34V24H33V22ZM35 22H36V24H35V22ZM58 18H59V34H58V18ZM60 22H61V34H60V22ZM10 32H11V34H10V32ZM12 32H13V34H12V32ZM14 32H15V34H14V32ZM16 32H17V34H16V32ZM18 32H19V34H18V32ZM20 32H21V34H20V32ZM22 32H23V34H22V32ZM24 32H25V34H24V32ZM26 32H27V34H26V32ZM28 32H29V34H28V32ZM30 32H31V34H30V32ZM32 32H33V34H32V32ZM34 32H35V34H34V32ZM36 32H37V34H36V32ZM38 32H39V34H38V32ZM40 32H41V34H40V32ZM42 32H43V34H42V32ZM44 32H45V34H44V32ZM46 32H47V34H46V32ZM48 32H49V34H48V32ZM50 32H51V34H50V32ZM52 32H53V34H52V32ZM54 32H55V34H54V32ZM56 32H57V34H56V32Z" fill="black"/>
<path fill-rule="evenodd" clip-rule="evenodd" d="M6 6H57V12H6V6Z" fill="white"/>
<path d="M8.98 10H54.02V12H8.98V10ZM8 12H55V14H8V12ZM54.02 10H55V12H54.02V10Z" fill="#D8D8D8"/>
<path d="M8 8H55V10H8V8ZM7 10H9V12H7V10ZM6 12H8V14H6V12Z" fill="black"/>
<path d="M9 10H56V12H9V10ZM8 12H57V14H8V12Z" fill="#AAAAAA"/>
<path d="M9 12H10V14H9V12ZM10 10H11V12H10V10ZM11 12H12V14H11V12ZM12 10H13V12H12V10ZM13 12H14V14H13V12ZM14 10H15V12H14V10ZM15 12H16V14H15V12ZM16 10H17V12H16V10ZM17 12H18V14H17V12ZM18 10H19V12H18V10ZM19 12H20V14H19V12ZM20 10H21V12H20V10ZM21 12H22V14H21V12ZM22 10H23V12H22V10ZM23 12H24V14H23V12ZM24 10H25V12H24V10ZM25 12H26V14H25V12ZM26 10H27V12H26V10ZM27 12H28V14H27V12ZM28 10H29V12H28V10ZM29 12H30V14H29V12ZM30 10H31V12H30V10ZM31 12H32V14H31V12ZM32 10H33V12H32V10ZM33 12H34V14H33V12ZM34 10H35V12H34V10ZM35 12H36V14H35V12ZM36 10H37V12H36V10ZM37 12H38V14H37V12ZM38 10H39V12H38V10ZM39 12H40V14H39V12ZM40 10H41V12H40V10ZM41 12H42V14H41V12ZM42 10H43V12H42V10ZM43 12H44V14H43V12ZM44 10H45V12H44V10ZM45 12H46V14H45V12ZM46 10H47V12H46V10ZM47 12H48V14H47V12ZM48 10H49V12H48V10ZM49 12H50V14H49V12ZM50 10H51V12H50V10ZM51 12H52V14H51V12ZM52 10H53V12H52V10ZM53 12H54V14H53V12ZM55 12H56V14H55V12ZM54 10H55V12H54V10Z" fill="#6687BA"/>
<path d="M56 12H57V14H56V12ZM55 10H56V12H55V10ZM0 0H65V2H0V0ZM0 2H1V38H0V2Z" fill="black"/>
<path d="M1 36H64V38H1V36ZM64 2H65V38H64V2Z" fill="white"/>
</svg>
