<svg width="85" height="44" viewBox="0 0 85 44" fill="none" xmlns="http://www.w3.org/2000/svg">
<path fill-rule="evenodd" clip-rule="evenodd" d="M0 0H85V44H0V0Z" fill="#AAAAAA"/>
<path d="M74 9H81V37H10V33H5V5H74V9ZM4 7H5V31H4V7ZM74 7H75V9H74V7Z" fill="black"/>
<path fill-rule="evenodd" clip-rule="evenodd" d="M5 7H74V31H5V7Z" fill="white"/>
<path fill-rule="evenodd" clip-rule="evenodd" d="M62.5 25H63V11H62V23H11V25H62.5ZM8 9H10V11H8V9ZM8 11H9V29H8V11ZM9 27H69V29H9V27ZM67 9H69V11H67V9ZM68 11H69V27H68V11ZM61 9H63V11H61V9ZM11 9H12V23H11V9ZM12 9H13V11H12V9Z" fill="#AAAAAA"/>
<path d="M43 15H47V17H43V15ZM44 17H48V19H44V17ZM45 19H51V21H45V19ZM49 17H52V19H49V17ZM48 15H53V17H48V15ZM50 13H54V15H50V13ZM51 11H55V13H51V11ZM56 11H57V13H56V11ZM55 13H56V15H55V13ZM54 15H55V17H54V15ZM53 17H54V19H53V17ZM52 19H53V21H52V19ZM16 11H21V13H16V11ZM16 15H21V17H16V15ZM18 17H19V19H18V17ZM15 17H16V19H15V17ZM15 13H16V15H15V13ZM15 9H16V11H15V9ZM18 9H19V11H18V9ZM21 9H22V11H21V9ZM21 13H22V15H21V13ZM21 17H22V19H21V17Z" fill="black"/>
<path fill-rule="evenodd" clip-rule="evenodd" d="M16 13H21V15H16V13Z" fill="#6687BA"/>
<path d="M0 0H85V2H0V0ZM0 2H1V42H0V2Z" fill="black"/>
<path d="M0 42H85V44H0V42ZM84 2H85V42H84V2Z" fill="white"/>
</svg>
