<svg width="46" height="62" viewBox="0 0 46 62" fill="none" xmlns="http://www.w3.org/2000/svg">
<path fill-rule="evenodd" clip-rule="evenodd" d="M1 2V62H0V0H46V2H1Z" fill="black"/>
<path fill-rule="evenodd" clip-rule="evenodd" d="M1 2H44V60H1V2Z" fill="#AAAAAA"/>
<path fill-rule="evenodd" clip-rule="evenodd" d="M38 56H4V6H32V8H34V10H36V12H38V16H40V56H38Z" fill="black"/>
<path fill-rule="evenodd" clip-rule="evenodd" d="M40 58H5V56H40V18H41V58H40ZM31 14H39V16H30V6H31V14ZM9 36H14V38H9V36ZM9 32H16V34H9V32ZM17 32H21V34H17V32ZM26 32H27V34H26V32ZM28 32H31V34H28V32ZM33 32H36V34H33V32ZM35 28H36V30H35V28ZM21 28H34V30H21V28ZM12 28H20V30H12V28ZM9 28H11V30H9V28ZM9 24H17V26H9V24ZM18 24H28V26H18V24ZM30 24H36V26H30V24ZM22 20H24V22H22V20ZM12 20H21V22H12V20ZM33 46H36V48H33V46ZM30 46H32V48H30V46ZM27 46H29V48H27V46ZM9 40H11V42H9V40ZM12 40H18V42H12V40ZM19 40H24V42H19V40ZM25 40H31V42H25V40ZM32 40H36V42H32V40ZM35 36H36V38H35V36ZM26 36H34V38H26V36ZM20 36H25V38H20V36ZM15 36H19V38H15V36ZM22 32H25V34H22V32ZM25 20H36V22H25V20Z" fill="white"/>
<path fill-rule="evenodd" clip-rule="evenodd" d="M44 62H1V60H44V2H46V62H44Z" fill="white"/>
<path fill-rule="evenodd" clip-rule="evenodd" d="M11 10H12V12H11V10ZM12 12H13V14H12V12ZM13 10H14V12H13V10ZM12 8H13V10H12V8ZM14 8H15V10H14V8Z" fill="#AAAAAA"/>
<path fill-rule="evenodd" clip-rule="evenodd" d="M7 12H8V14H7V12ZM8 14H9V16H8V14ZM9 12H10V14H9V12ZM10 14H11V16H10V14ZM11 12H12V14H11V12ZM13 12H14V14H13V12ZM10 10H11V12H10V10ZM12 10H13V12H12V10ZM14 10H15V12H14V10ZM11 8H12V10H11V8ZM13 8H14V10H13V8ZM15 8H16V10H15V8ZM12 14H13V16H12V14Z" fill="#6688BB"/>
<path fill-rule="evenodd" clip-rule="evenodd" d="M8 12H9V14H8V12ZM9 14H10V16H9V14ZM10 12H11V14H10V12ZM11 14H12V16H11V14Z" fill="white"/>
</svg>
