<?xml version="1.0" encoding="UTF-8"?>
<svg width="11px" height="22px" viewBox="0 0 11 22" version="1.1" xmlns="http://www.w3.org/2000/svg" xmlns:xlink="http://www.w3.org/1999/xlink">
    <!-- Generator: Sketch 53.2 (72643) - https://sketchapp.com -->
    <title>Combined Shape</title>
    <desc>Created with Sketch.</desc>
    <g id="Page-1" stroke="none" stroke-width="1" fill="none" fill-rule="evenodd">
        <g id="Artboard" transform="translate(-20.000000, 0.000000)" fill="#000000">
            <path d="M20,6 L21,6 L21,8 L20,8 L20,6 Z M20,10 L21,10 L21,12 L20,12 L20,10 Z M22,8 L23,8 L23,10 L22,10 L22,8 Z M22,12 L23,12 L23,14 L22,14 L22,12 Z M20,14 L21,14 L21,16 L20,16 L20,14 Z M22,16 L23,16 L23,18 L22,18 L22,16 Z M20,18 L21,18 L21,20 L20,20 L20,18 Z M22,20 L23,20 L23,22 L22,22 L22,20 Z M22,0 L23,0 L23,2 L22,2 L22,0 Z M22,4 L23,4 L23,6 L22,6 L22,4 Z M20,2 L21,2 L21,4 L20,4 L20,2 Z M24,6 L25,6 L25,8 L24,8 L24,6 Z M24,10 L25,10 L25,12 L24,12 L24,10 Z M26,8 L27,8 L27,10 L26,10 L26,8 Z M26,12 L27,12 L27,14 L26,14 L26,12 Z M24,14 L25,14 L25,16 L24,16 L24,14 Z M26,16 L27,16 L27,18 L26,18 L26,16 Z M24,18 L25,18 L25,20 L24,20 L24,18 Z M26,20 L27,20 L27,22 L26,22 L26,20 Z M26,0 L27,0 L27,2 L26,2 L26,0 Z M26,4 L27,4 L27,6 L26,6 L26,4 Z M24,2 L25,2 L25,4 L24,4 L24,2 Z M28,6 L29,6 L29,8 L28,8 L28,6 Z M28,10 L29,10 L29,12 L28,12 L28,10 Z M30,8 L31,8 L31,10 L30,10 L30,8 Z M30,12 L31,12 L31,14 L30,14 L30,12 Z M28,14 L29,14 L29,16 L28,16 L28,14 Z M30,16 L31,16 L31,18 L30,18 L30,16 Z M28,18 L29,18 L29,20 L28,20 L28,18 Z M30,20 L31,20 L31,22 L30,22 L30,20 Z M30,0 L31,0 L31,2 L30,2 L30,0 Z M30,4 L31,4 L31,6 L30,6 L30,4 Z M28,2 L29,2 L29,4 L28,4 L28,2 Z" id="Combined-Shape"></path>
        </g>
    </g>
</svg>