<svg width="11" height="22" xmlns="http://www.w3.org/2000/svg">
    <path
        d="M0 6h1v2H0V6zm0 4h1v2H0v-2zm2-2h1v2H2V8zm0 4h1v2H2v-2zm-2 2h1v2H0v-2zm2 2h1v2H2v-2zm-2 2h1v2H0v-2zm2 2h1v2H2v-2zM2 0h1v2H2V0zm0 4h1v2H2V4zM0 2h1v2H0V2zm4 4h1v2H4V6zm0 4h1v2H4v-2zm2-2h1v2H6V8zm0 4h1v2H6v-2zm-2 2h1v2H4v-2zm2 2h1v2H6v-2zm-2 2h1v2H4v-2zm2 2h1v2H6v-2zM6 0h1v2H6V0zm0 4h1v2H6V4zM4 2h1v2H4V2zm4 4h1v2H8V6zm0 4h1v2H8v-2zm2-2h1v2h-1V8zm0 4h1v2h-1v-2zm-2 2h1v2H8v-2zm2 2h1v2h-1v-2zm-2 2h1v2H8v-2zm2 2h1v2h-1v-2zm0-20h1v2h-1V0zm0 4h1v2h-1V4zM8 2h1v2H8V2z"
        fill="#000" fill-rule="evenodd" />
</svg>