<svg width="86" height="46" xmlns="http://www.w3.org/2000/svg">
  <g fill="none" fill-rule="evenodd">
    <path fill="#AAA" d="M0 0h43v46H0z" />
    <path d="M5 8V6h32v2h2v32H4V8h1z" fill="#000" />
    <path d="M29 16v2H13v-2h-1V6h18v10h-1z" fill="#FFF" />
    <path fill="#000" d="M24 7h3v8h-3z" />
    <path d="M9 24v-2h25v2h1v16H8V24h1z" fill="#FFF" />
    <path fill="#AAA" d="M5 37h2v2H5z" />
    <path
      d="M28 28v-2h2v2h-1v2h-1v2h-1v2h-1v2h-1v2h-2v-2h1v-2h1v-2h1v-2h1v-2h1zm-3 0v-2h2v2h-1v2h-1v2h-1v2h-1v2h-1v2h-2v-2h-1v-2h-1v-2h2v2h2v-2h1v-2h1v-2h1zm-8 8h-1v-2h-1v-2h2v2h1v2h1v2h-2v-2z"
      fill="#000" />
    <path d="M42 46H1v-2h41V2h1v44h-1z" fill="#000" />
    <path d="M1 2v44H0V0h43v2H1z" fill="#FFF" />
    <g>
      <path fill="#AAA" d="M43 0h43v46H43z" />
      <path d="M48 8V6h32v2h2v32H47V8h1z" fill="#FFF" />
      <path fill="#68B" d="M80 6h2v2h-2z" />
      <path d="M72 16v2H56v-2h-1V6h18v10h-1z" fill="#000" />
      <path fill="#FFF" d="M67 7h3v8h-3z" />
      <path d="M52 24v-2h25v2h1v16H51V24h1z" fill="#000" />
      <path fill="#68B" d="M48 37h2v2h-2zM47 6h1v2h-1z" />
      <path
        d="M71 28v-2h2v2h-1v2h-1v2h-1v2h-1v2h-1v2h-2v-2h1v-2h1v-2h1v-2h1v-2h1zm-3 0v-2h2v2h-1v2h-1v2h-1v2h-1v2h-1v2h-2v-2h-1v-2h-1v-2h2v2h2v-2h1v-2h1v-2h1zm-8 8h-1v-2h-1v-2h2v2h1v2h1v2h-2v-2z"
        fill="#FFF" />
      <path d="M85 46H44v-2h41V2h1v44h-1z" fill="#FFF" />
      <path d="M44 2v44h-1V0h43v2H44z" fill="#000" />
    </g>
  </g>
</svg>