<?xml version="1.0" encoding="UTF-8"?>
<svg width="512px" height="512px" viewBox="0 0 512 512" version="1.1" xmlns="http://www.w3.org/2000/svg" xmlns:xlink="http://www.w3.org/1999/xlink">
    <!-- Generator: Sketch 53.2 (72643) - https://sketchapp.com -->
    <title>logo</title>
    <desc>Created with Sketch.</desc>
    <g id="logo" stroke="none" stroke-width="1" fill="none" fill-rule="evenodd">
        <rect fill="#401040" x="0" y="0" width="512" height="512"></rect>
        <g id="tick" transform="translate(91.000000, 106.000000)">
            <path d="M98,216 L100,216 L100,220 L96,220 L96,216 L94,216 L94,212 L92,212 L92,208 L90,208 L90,204 L94,204 L94,208 L96,208 L96,212 L98,212 L98,216 Z M78,264 L78,268 L76,268 L76,264 L74,264 L74,260 L72,260 L72,256 L70,256 L70,252 L74,252 L74,256 L76,256 L76,260 L78,260 L78,264 Z M68,248 L70,248 L70,252 L66,252 L66,248 L64,248 L64,244 L62,244 L62,240 L60,240 L60,236 L64,236 L64,240 L66,240 L66,244 L68,244 L68,248 Z M58,232 L60,232 L60,236 L56,236 L56,232 L54,232 L54,228 L52,228 L52,224 L50,224 L50,220 L54,220 L54,224 L56,224 L56,228 L58,228 L58,232 Z M48,216 L50,216 L50,220 L46,220 L46,216 L44,216 L44,212 L42,212 L42,208 L40,208 L40,204 L44,204 L44,208 L46,208 L46,212 L48,212 L48,216 Z M126,256 L126,260 L120,260 L120,256 L122,256 L122,252 L124,252 L124,248 L126,248 L126,244 L130,244 L130,248 L128,248 L128,252 L126,252 L126,256 Z M98,296 L98,292 L100,292 L100,288 L102,288 L102,284 L104,284 L104,280 L108,280 L108,284 L106,284 L106,288 L104,288 L104,292 L102,292 L102,296 L100,296 L100,300 L96,300 L96,296 L98,296 Z M110,276 L110,272 L112,272 L112,268 L114,268 L114,264 L116,264 L116,260 L120,260 L120,264 L118,264 L118,268 L116,268 L116,272 L114,272 L114,276 L112,276 L112,280 L108,280 L108,276 L110,276 Z M132,240 L132,236 L134,236 L134,232 L136,232 L136,228 L138,228 L138,224 L142,224 L142,228 L140,228 L140,232 L138,232 L138,236 L136,236 L136,240 L134,240 L134,244 L130,244 L130,240 L132,240 Z M144,220 L144,216 L146,216 L146,212 L148,212 L148,208 L150,208 L150,204 L154,204 L154,208 L152,208 L152,212 L150,212 L150,216 L148,216 L148,220 L146,220 L146,224 L142,224 L142,220 L144,220 Z M158,200 L158,204 L154,204 L154,200 L156,200 L156,196 L158,196 L158,192 L160,192 L160,188 L164,188 L164,192 L162,192 L162,196 L160,196 L160,200 L158,200 Z M166,184 L166,180 L168,180 L168,176 L170,176 L170,172 L172,172 L172,168 L176,168 L176,172 L174,172 L174,176 L172,176 L172,180 L170,180 L170,184 L168,184 L168,188 L164,188 L164,184 L166,184 Z M180,164 L180,168 L176,168 L176,164 L178,164 L178,160 L180,160 L180,156 L182,156 L182,152 L186,152 L186,156 L184,156 L184,160 L182,160 L182,164 L180,164 Z M188,148 L188,144 L190,144 L190,140 L192,140 L192,136 L194,136 L194,132 L198,132 L198,136 L196,136 L196,140 L194,140 L194,144 L192,144 L192,148 L190,148 L190,152 L186,152 L186,148 L188,148 Z M200,128 L200,124 L202,124 L202,120 L204,120 L204,116 L206,116 L206,112 L210,112 L210,116 L208,116 L208,120 L206,120 L206,124 L204,124 L204,128 L202,128 L202,132 L198,132 L198,128 L200,128 Z M214,108 L214,112 L210,112 L210,108 L212,108 L212,104 L214,104 L214,100 L216,100 L216,96 L220,96 L220,100 L218,100 L218,104 L216,104 L216,108 L214,108 Z M222,92 L222,88 L224,88 L224,84 L226,84 L226,80 L228,80 L228,76 L232,76 L232,80 L230,80 L230,84 L228,84 L228,88 L226,88 L226,92 L224,92 L224,96 L220,96 L220,92 L222,92 Z M234,72 L234,68 L236,68 L236,64 L238,64 L238,60 L240,60 L240,56 L244,56 L244,60 L242,60 L242,64 L240,64 L240,68 L238,68 L238,72 L236,72 L236,76 L232,76 L232,72 L234,72 Z M248,52 L248,56 L244,56 L244,52 L246,52 L246,48 L248,48 L248,44 L250,44 L250,40 L254,40 L254,44 L252,44 L252,48 L250,48 L250,52 L248,52 Z M256,36 L256,32 L258,32 L258,28 L260,28 L260,24 L262,24 L262,20 L266,20 L266,24 L264,24 L264,28 L262,28 L262,32 L260,32 L260,36 L258,36 L258,40 L254,40 L254,36 L256,36 Z M270,16 L270,20 L266,20 L266,16 L268,16 L268,12 L270,12 L270,8 L272,8 L272,4 L276,4 L276,8 L274,8 L274,12 L272,12 L272,16 L270,16 Z M276,0 L280,0 L280,4 L276,4 L276,0 Z M36,200 L40,200 L40,204 L36,204 L36,200 Z M86,200 L90,200 L90,204 L86,204 L86,200 Z M100,220 L104,220 L104,224 L100,224 L100,220 Z" id="Combined-Shape" fill="#908070"></path>
            <path d="M124,256 L124,252 L123,252 L122,252 L122,256 L122,260 L124,260 L124,264 L126,264 L126,268 L128,268 L128,264 L128,260 L126,260 L126,256 L124,256 L122,256 Z M98,216 L100,216 L100,220 L96,220 L96,216 L94,216 L94,212 L92,212 L92,208 L90,208 L90,204 L94,204 L94,208 L96,208 L96,212 L98,212 L98,216 Z M176,256 L176,260 L170,260 L170,256 L172,256 L172,252 L174,252 L174,248 L176,248 L176,244 L180,244 L180,248 L178,248 L178,252 L176,252 L176,256 Z M148,296 L148,292 L150,292 L150,288 L152,288 L152,284 L154,284 L154,280 L158,280 L158,284 L156,284 L156,288 L154,288 L154,292 L152,292 L152,296 L150,296 L150,300 L146,300 L146,296 L148,296 Z M160,276 L160,272 L162,272 L162,268 L164,268 L164,264 L166,264 L166,260 L170,260 L170,264 L168,264 L168,268 L166,268 L166,272 L164,272 L164,276 L162,276 L162,280 L158,280 L158,276 L160,276 Z M182,240 L182,236 L184,236 L184,232 L186,232 L186,228 L188,228 L188,224 L192,224 L192,228 L190,228 L190,232 L188,232 L188,236 L186,236 L186,240 L184,240 L184,244 L180,244 L180,240 L182,240 Z M194,220 L194,216 L196,216 L196,212 L198,212 L198,208 L200,208 L200,204 L204,204 L204,208 L202,208 L202,212 L200,212 L200,216 L198,216 L198,220 L196,220 L196,224 L192,224 L192,220 L194,220 Z M208,200 L208,204 L204,204 L204,200 L206,200 L206,196 L208,196 L208,192 L210,192 L210,188 L214,188 L214,192 L212,192 L212,196 L210,196 L210,200 L208,200 Z M216,184 L216,180 L218,180 L218,176 L220,176 L220,172 L222,172 L222,168 L226,168 L226,172 L224,172 L224,176 L222,176 L222,180 L220,180 L220,184 L218,184 L218,188 L214,188 L214,184 L216,184 Z M230,164 L230,168 L226,168 L226,164 L228,164 L228,160 L230,160 L230,156 L232,156 L232,152 L236,152 L236,156 L234,156 L234,160 L232,160 L232,164 L230,164 Z M238,148 L238,144 L240,144 L240,140 L242,140 L242,136 L244,136 L244,132 L248,132 L248,136 L246,136 L246,140 L244,140 L244,144 L242,144 L242,148 L240,148 L240,152 L236,152 L236,148 L238,148 Z M250,128 L250,124 L252,124 L252,120 L254,120 L254,116 L256,116 L256,112 L260,112 L260,116 L258,116 L258,120 L256,120 L256,124 L254,124 L254,128 L252,128 L252,132 L248,132 L248,128 L250,128 Z M264,108 L264,112 L260,112 L260,108 L262,108 L262,104 L264,104 L264,100 L266,100 L266,96 L270,96 L270,100 L268,100 L268,104 L266,104 L266,108 L264,108 Z M272,92 L272,88 L274,88 L274,84 L276,84 L276,80 L278,80 L278,76 L282,76 L282,80 L280,80 L280,84 L278,84 L278,88 L276,88 L276,92 L274,92 L274,96 L270,96 L270,92 L272,92 Z M284,72 L284,68 L286,68 L286,64 L288,64 L288,60 L290,60 L290,56 L294,56 L294,60 L292,60 L292,64 L290,64 L290,68 L288,68 L288,72 L286,72 L286,76 L282,76 L282,72 L284,72 Z M298,52 L298,56 L294,56 L294,52 L296,52 L296,48 L298,48 L298,44 L300,44 L300,40 L304,40 L304,44 L302,44 L302,48 L300,48 L300,52 L298,52 Z M306,36 L306,32 L308,32 L308,28 L310,28 L310,24 L312,24 L312,20 L316,20 L316,24 L314,24 L314,28 L312,28 L312,32 L310,32 L310,36 L308,36 L308,40 L304,40 L304,36 L306,36 Z M320,16 L320,20 L316,20 L316,16 L318,16 L318,12 L320,12 L320,8 L322,8 L322,4 L326,4 L326,8 L324,8 L324,12 L322,12 L322,16 L320,16 Z M326,0 L330,0 L330,4 L326,4 L326,0 Z M86,200 L90,200 L90,204 L86,204 L86,200 Z M100,220 L104,220 L104,224 L100,224 L100,220 Z" id="Combined-Shape" fill="#908070"></path>
            <g id="Group" transform="translate(50.000000, 0.000000)">
                <rect id="Rectangle" fill="#F00020" x="240" y="0" width="36" height="4"></rect>
                <rect id="Rectangle" fill="#F00010" x="236" y="4" width="36" height="4"></rect>
                <rect id="Rectangle" fill="#F00010" x="234" y="8" width="36" height="4"></rect>
                <rect id="Rectangle" fill="#F00000" x="232" y="12" width="36" height="4"></rect>
                <rect id="Rectangle" fill="#F00000" x="230" y="16" width="36" height="4"></rect>
                <rect id="Rectangle" fill="#F00000" x="226" y="20" width="36" height="4"></rect>
                <rect id="Rectangle" fill="#F01000" x="224" y="24" width="36" height="4"></rect>
                <rect id="Rectangle" fill="#F01000" x="222" y="28" width="36" height="4"></rect>
                <rect id="Rectangle" fill="#F02000" x="220" y="32" width="36" height="4"></rect>
                <rect id="Rectangle" fill="#F02000" x="218" y="36" width="36" height="4"></rect>
                <rect id="Rectangle" fill="#F03000" x="214" y="40" width="36" height="4"></rect>
                <rect id="Rectangle" fill="#F03000" x="212" y="44" width="36" height="4"></rect>
                <rect id="Rectangle" fill="#F04000" x="210" y="48" width="36" height="4"></rect>
                <rect id="Rectangle" fill="#F04000" x="208" y="52" width="36" height="4"></rect>
                <rect id="Rectangle" fill="#F05000" x="204" y="56" width="36" height="4"></rect>
                <rect id="Rectangle" fill="#F05000" x="202" y="60" width="36" height="4"></rect>
                <rect id="Rectangle" fill="#F06000" x="200" y="64" width="36" height="4"></rect>
                <rect id="Rectangle" fill="#F06000" x="198" y="68" width="36" height="4"></rect>
                <rect id="Rectangle" fill="#F07000" x="196" y="72" width="36" height="4"></rect>
                <rect id="Rectangle" fill="#F07000" x="192" y="76" width="36" height="4"></rect>
                <rect id="Rectangle" fill="#F08000" x="190" y="80" width="36" height="4"></rect>
                <rect id="Rectangle" fill="#F08000" x="188" y="84" width="36" height="4"></rect>
                <rect id="Rectangle" fill="#F09000" x="186" y="88" width="36" height="4"></rect>
                <rect id="Rectangle" fill="#F09000" x="184" y="92" width="36" height="4"></rect>
                <rect id="Rectangle" fill="#F0A000" x="180" y="96" width="36" height="4"></rect>
                <rect id="Rectangle" fill="#F0A000" x="178" y="100" width="36" height="4"></rect>
                <rect id="Rectangle" fill="#F0B000" x="176" y="104" width="36" height="4"></rect>
                <rect id="Rectangle" fill="#F0B000" x="174" y="108" width="36" height="4"></rect>
                <rect id="Rectangle" fill="#F0C000" x="170" y="112" width="36" height="4"></rect>
                <rect id="Rectangle" fill="#F0C000" x="168" y="116" width="36" height="4"></rect>
                <rect id="Rectangle" fill="#F0D000" x="166" y="120" width="36" height="4"></rect>
                <rect id="Rectangle" fill="#F0D000" x="164" y="124" width="36" height="4"></rect>
                <rect id="Rectangle" fill="#F0E000" x="162" y="128" width="36" height="4"></rect>
                <rect id="Rectangle" fill="#F0E000" x="158" y="132" width="36" height="4"></rect>
                <rect id="Rectangle" fill="#F0F000" x="156" y="136" width="36" height="4"></rect>
                <rect id="Rectangle" fill="#F0F000" x="154" y="140" width="36" height="4"></rect>
                <rect id="Rectangle" fill="#F0F000" x="152" y="144" width="36" height="4"></rect>
                <rect id="Rectangle" fill="#F0F000" x="150" y="148" width="36" height="4"></rect>
                <rect id="Rectangle" fill="#F0F000" x="146" y="152" width="36" height="4"></rect>
                <rect id="Rectangle" fill="#F0F000" x="144" y="156" width="36" height="4"></rect>
                <rect id="Rectangle" fill="#F0F000" x="142" y="160" width="36" height="4"></rect>
                <rect id="Rectangle" fill="#E0F000" x="140" y="164" width="36" height="4"></rect>
                <rect id="Rectangle" fill="#E0F000" x="136" y="168" width="36" height="4"></rect>
                <rect id="Rectangle" fill="#D0F000" x="134" y="172" width="36" height="4"></rect>
                <rect id="Rectangle" fill="#D0F000" x="132" y="176" width="36" height="4"></rect>
                <rect id="Rectangle" fill="#C0F000" x="130" y="180" width="36" height="4"></rect>
                <rect id="Rectangle" fill="#C0F000" x="128" y="184" width="36" height="4"></rect>
                <rect id="Rectangle" fill="#B0F000" x="124" y="188" width="36" height="4"></rect>
                <rect id="Rectangle" fill="#B0F000" x="122" y="192" width="36" height="4"></rect>
                <rect id="Rectangle" fill="#A0F000" x="120" y="196" width="36" height="4"></rect>
                <rect id="Rectangle" fill="#A0F000" x="118" y="200" width="36" height="4"></rect>
                <rect id="Rectangle" fill="#90F000" x="114" y="204" width="36" height="4"></rect>
                <rect id="Rectangle" fill="#90F000" x="112" y="208" width="36" height="4"></rect>
                <rect id="Rectangle" fill="#80F000" x="110" y="212" width="36" height="4"></rect>
                <rect id="Rectangle" fill="#80F000" x="108" y="216" width="36" height="4"></rect>
                <rect id="Rectangle" fill="#70F000" x="106" y="220" width="36" height="4"></rect>
                <rect id="Rectangle" fill="#70F000" x="102" y="224" width="36" height="4"></rect>
                <rect id="Rectangle" fill="#60F000" x="100" y="228" width="36" height="4"></rect>
                <rect id="Rectangle" fill="#60F000" x="98" y="232" width="36" height="4"></rect>
                <rect id="Rectangle" fill="#50F000" x="96" y="236" width="36" height="4"></rect>
                <rect id="Rectangle" fill="#50F000" x="94" y="240" width="36" height="4"></rect>
                <rect id="Rectangle" fill="#40F000" x="90" y="244" width="36" height="4"></rect>
                <rect id="Rectangle" fill="#40F000" x="88" y="248" width="36" height="4"></rect>
                <rect id="Rectangle" fill="#30F000" x="86" y="252" width="36" height="4"></rect>
                <rect id="Rectangle" fill="#30F000" x="84" y="256" width="36" height="4"></rect>
                <rect id="Rectangle" fill="#20F000" x="80" y="260" width="36" height="4"></rect>
                <rect id="Rectangle" fill="#20F000" x="78" y="264" width="36" height="4"></rect>
                <rect id="Rectangle" fill="#10F000" x="76" y="268" width="36" height="4"></rect>
                <rect id="Rectangle" fill="#10F000" x="74" y="272" width="36" height="4"></rect>
                <rect id="Rectangle" fill="#00F000" x="72" y="276" width="36" height="4"></rect>
                <rect id="Rectangle" fill="#00F000" x="68" y="280" width="36" height="4"></rect>
                <rect id="Rectangle" fill="#00F020" x="66" y="284" width="36" height="4"></rect>
                <rect id="Rectangle" fill="#00F040" x="64" y="288" width="36" height="4"></rect>
                <rect id="Rectangle" fill="#00F060" x="62" y="292" width="36" height="4"></rect>
                <rect id="Rectangle" fill="#00F080" x="60" y="296" width="36" height="4"></rect>
                <rect id="Rectangle" fill="#0030F0" x="0" y="200" width="36" height="4"></rect>
                <rect id="Rectangle" fill="#0040F0" x="4" y="204" width="36" height="4"></rect>
                <rect id="Rectangle" fill="#0040E0" x="6" y="208" width="36" height="4"></rect>
                <rect id="Rectangle" fill="#0050E0" x="8" y="212" width="36" height="4"></rect>
                <rect id="Rectangle" fill="#0050D0" x="10" y="216" width="36" height="4"></rect>
                <rect id="Rectangle" fill="#0060D0" x="14" y="220" width="36" height="4"></rect>
                <rect id="Rectangle" fill="#0060C0" x="16" y="224" width="36" height="4"></rect>
                <rect id="Rectangle" fill="#0070C0" x="18" y="228" width="36" height="4"></rect>
                <rect id="Rectangle" fill="#0080C0" x="20" y="232" width="36" height="4"></rect>
                <rect id="Rectangle" fill="#0090C0" x="24.1052632" y="236" width="36" height="4"></rect>
                <rect id="Rectangle" fill="#00A0C0" x="25.9473684" y="240" width="36" height="4"></rect>
                <rect id="Rectangle" fill="#00B0C0" x="28" y="244" width="36" height="4"></rect>
                <rect id="Rectangle" fill="#00C0C0" x="30" y="248" width="36" height="4"></rect>
                <rect id="Rectangle" fill="#00D0C0" x="34" y="252" width="36" height="4"></rect>
                <rect id="Rectangle" fill="#00E0C0" x="36" y="256" width="36" height="4"></rect>
                <rect id="Rectangle" fill="#00F0C0" x="38" y="260" width="36" height="4"></rect>
                <rect id="Rectangle" fill="#00F0B0" x="40" y="264" width="36" height="4"></rect>
                <rect id="Rectangle" fill="#00F0B0" x="42" y="268" width="34" height="4"></rect>
                <rect id="Rectangle" fill="#00F0A0" x="44" y="272" width="30" height="4"></rect>
                <rect id="Rectangle" fill="#00F0A0" x="46" y="276" width="26" height="4"></rect>
                <rect id="Rectangle" fill="#00F090" x="48.0526316" y="280" width="20" height="4"></rect>
                <rect id="Rectangle" fill="#00F090" x="52" y="284" width="14" height="4"></rect>
                <rect id="Rectangle" fill="#00F080" x="54" y="288" width="10" height="4"></rect>
                <rect id="Rectangle" fill="#00F080" x="56" y="292" width="6" height="4"></rect>
            </g>
            <g id="Group">
                <rect id="Rectangle" fill="#F00020" x="240" y="0" width="36" height="4"></rect>
                <rect id="Rectangle" fill="#F00010" x="236" y="4" width="36" height="4"></rect>
                <rect id="Rectangle" fill="#F00010" x="234" y="8" width="36" height="4"></rect>
                <rect id="Rectangle" fill="#F00000" x="232" y="12" width="36" height="4"></rect>
                <rect id="Rectangle" fill="#F00000" x="230" y="16" width="36" height="4"></rect>
                <rect id="Rectangle" fill="#F00000" x="226" y="20" width="36" height="4"></rect>
                <rect id="Rectangle" fill="#F01000" x="224" y="24" width="36" height="4"></rect>
                <rect id="Rectangle" fill="#F01000" x="222" y="28" width="36" height="4"></rect>
                <rect id="Rectangle" fill="#F02000" x="220" y="32" width="36" height="4"></rect>
                <rect id="Rectangle" fill="#F02000" x="218" y="36" width="36" height="4"></rect>
                <rect id="Rectangle" fill="#F03000" x="214" y="40" width="36" height="4"></rect>
                <rect id="Rectangle" fill="#F03000" x="212" y="44" width="36" height="4"></rect>
                <rect id="Rectangle" fill="#F04000" x="210" y="48" width="36" height="4"></rect>
                <rect id="Rectangle" fill="#F04000" x="208" y="52" width="36" height="4"></rect>
                <rect id="Rectangle" fill="#F05000" x="204" y="56" width="36" height="4"></rect>
                <rect id="Rectangle" fill="#F05000" x="202" y="60" width="36" height="4"></rect>
                <rect id="Rectangle" fill="#F06000" x="200" y="64" width="36" height="4"></rect>
                <rect id="Rectangle" fill="#F06000" x="198" y="68" width="36" height="4"></rect>
                <rect id="Rectangle" fill="#F07000" x="196" y="72" width="36" height="4"></rect>
                <rect id="Rectangle" fill="#F07000" x="192" y="76" width="36" height="4"></rect>
                <rect id="Rectangle" fill="#F08000" x="190" y="80" width="36" height="4"></rect>
                <rect id="Rectangle" fill="#F08000" x="188" y="84" width="36" height="4"></rect>
                <rect id="Rectangle" fill="#F09000" x="186" y="88" width="36" height="4"></rect>
                <rect id="Rectangle" fill="#F09000" x="184" y="92" width="36" height="4"></rect>
                <rect id="Rectangle" fill="#F0A000" x="180" y="96" width="36" height="4"></rect>
                <rect id="Rectangle" fill="#F0A000" x="178" y="100" width="36" height="4"></rect>
                <rect id="Rectangle" fill="#F0B000" x="176" y="104" width="36" height="4"></rect>
                <rect id="Rectangle" fill="#F0B000" x="174" y="108" width="36" height="4"></rect>
                <rect id="Rectangle" fill="#F0C000" x="170" y="112" width="36" height="4"></rect>
                <rect id="Rectangle" fill="#F0C000" x="168" y="116" width="36" height="4"></rect>
                <rect id="Rectangle" fill="#F0D000" x="166" y="120" width="36" height="4"></rect>
                <rect id="Rectangle" fill="#F0D000" x="164" y="124" width="36" height="4"></rect>
                <rect id="Rectangle" fill="#F0E000" x="162" y="128" width="36" height="4"></rect>
                <rect id="Rectangle" fill="#F0E000" x="158" y="132" width="36" height="4"></rect>
                <rect id="Rectangle" fill="#F0F000" x="156" y="136" width="36" height="4"></rect>
                <rect id="Rectangle" fill="#F0F000" x="154" y="140" width="36" height="4"></rect>
                <rect id="Rectangle" fill="#F0F000" x="152" y="144" width="36" height="4"></rect>
                <rect id="Rectangle" fill="#F0F000" x="150" y="148" width="36" height="4"></rect>
                <rect id="Rectangle" fill="#F0F000" x="146" y="152" width="36" height="4"></rect>
                <rect id="Rectangle" fill="#F0F000" x="144" y="156" width="36" height="4"></rect>
                <rect id="Rectangle" fill="#F0F000" x="142" y="160" width="36" height="4"></rect>
                <rect id="Rectangle" fill="#E0F000" x="140" y="164" width="36" height="4"></rect>
                <rect id="Rectangle" fill="#E0F000" x="136" y="168" width="36" height="4"></rect>
                <rect id="Rectangle" fill="#D0F000" x="134" y="172" width="36" height="4"></rect>
                <rect id="Rectangle" fill="#D0F000" x="132" y="176" width="36" height="4"></rect>
                <rect id="Rectangle" fill="#C0F000" x="130" y="180" width="36" height="4"></rect>
                <rect id="Rectangle" fill="#C0F000" x="128" y="184" width="36" height="4"></rect>
                <rect id="Rectangle" fill="#B0F000" x="124" y="188" width="36" height="4"></rect>
                <rect id="Rectangle" fill="#B0F000" x="122" y="192" width="36" height="4"></rect>
                <rect id="Rectangle" fill="#A0F000" x="120" y="196" width="36" height="4"></rect>
                <rect id="Rectangle" fill="#A0F000" x="118" y="200" width="36" height="4"></rect>
                <rect id="Rectangle" fill="#90F000" x="114" y="204" width="36" height="4"></rect>
                <rect id="Rectangle" fill="#90F000" x="112" y="208" width="36" height="4"></rect>
                <rect id="Rectangle" fill="#80F000" x="110" y="212" width="36" height="4"></rect>
                <rect id="Rectangle" fill="#80F000" x="108" y="216" width="36" height="4"></rect>
                <rect id="Rectangle" fill="#70F000" x="106" y="220" width="36" height="4"></rect>
                <rect id="Rectangle" fill="#70F000" x="102" y="224" width="36" height="4"></rect>
                <rect id="Rectangle" fill="#60F000" x="100" y="228" width="36" height="4"></rect>
                <rect id="Rectangle" fill="#60F000" x="98" y="232" width="36" height="4"></rect>
                <rect id="Rectangle" fill="#50F000" x="96" y="236" width="36" height="4"></rect>
                <rect id="Rectangle" fill="#50F000" x="94" y="240" width="36" height="4"></rect>
                <rect id="Rectangle" fill="#40F000" x="90" y="244" width="36" height="4"></rect>
                <rect id="Rectangle" fill="#40F000" x="88" y="248" width="36" height="4"></rect>
                <rect id="Rectangle" fill="#30F000" x="86" y="252" width="36" height="4"></rect>
                <rect id="Rectangle" fill="#30F000" x="84" y="256" width="36" height="4"></rect>
                <rect id="Rectangle" fill="#20F000" x="80" y="260" width="36" height="4"></rect>
                <rect id="Rectangle" fill="#20F000" x="78" y="264" width="36" height="4"></rect>
                <rect id="Rectangle" fill="#10F000" x="76" y="268" width="36" height="4"></rect>
                <rect id="Rectangle" fill="#10F000" x="74" y="272" width="36" height="4"></rect>
                <rect id="Rectangle" fill="#00F000" x="72" y="276" width="36" height="4"></rect>
                <rect id="Rectangle" fill="#00F000" x="68" y="280" width="36" height="4"></rect>
                <rect id="Rectangle" fill="#00F020" x="66" y="284" width="36" height="4"></rect>
                <rect id="Rectangle" fill="#00F040" x="64" y="288" width="36" height="4"></rect>
                <rect id="Rectangle" fill="#00F060" x="62" y="292" width="36" height="4"></rect>
                <rect id="Rectangle" fill="#00F080" x="60" y="296" width="36" height="4"></rect>
                <rect id="Rectangle" fill="#0030F0" x="0" y="200" width="36" height="4"></rect>
                <rect id="Rectangle" fill="#0040F0" x="4" y="204" width="36" height="4"></rect>
                <rect id="Rectangle" fill="#0040E0" x="6" y="208" width="36" height="4"></rect>
                <rect id="Rectangle" fill="#0050E0" x="8" y="212" width="36" height="4"></rect>
                <rect id="Rectangle" fill="#0050D0" x="10" y="216" width="36" height="4"></rect>
                <rect id="Rectangle" fill="#0060D0" x="14" y="220" width="36" height="4"></rect>
                <rect id="Rectangle" fill="#0060C0" x="16" y="224" width="36" height="4"></rect>
                <rect id="Rectangle" fill="#0070C0" x="18" y="228" width="36" height="4"></rect>
                <rect id="Rectangle" fill="#0080C0" x="20" y="232" width="36" height="4"></rect>
                <rect id="Rectangle" fill="#0090C0" x="24.1052632" y="236" width="36" height="4"></rect>
                <rect id="Rectangle" fill="#00A0C0" x="25.9473684" y="240" width="36" height="4"></rect>
                <rect id="Rectangle" fill="#00B0C0" x="28" y="244" width="36" height="4"></rect>
                <rect id="Rectangle" fill="#00C0C0" x="30" y="248" width="36" height="4"></rect>
                <rect id="Rectangle" fill="#00D0C0" x="34" y="252" width="36" height="4"></rect>
                <rect id="Rectangle" fill="#00E0C0" x="36" y="256" width="36" height="4"></rect>
                <rect id="Rectangle" fill="#00F0C0" x="38" y="260" width="36" height="4"></rect>
                <rect id="Rectangle" fill="#00F0B0" x="40" y="264" width="36" height="4"></rect>
                <rect id="Rectangle" fill="#00F0B0" x="42" y="268" width="34" height="4"></rect>
                <rect id="Rectangle" fill="#00F0A0" x="44" y="272" width="30" height="4"></rect>
                <rect id="Rectangle" fill="#00F0A0" x="46" y="276" width="26" height="4"></rect>
                <rect id="Rectangle" fill="#00F090" x="48.0526316" y="280" width="20" height="4"></rect>
                <rect id="Rectangle" fill="#00F090" x="52" y="284" width="14" height="4"></rect>
                <rect id="Rectangle" fill="#00F080" x="54" y="288" width="10" height="4"></rect>
                <rect id="Rectangle" fill="#00F080" x="56" y="292" width="6" height="4"></rect>
            </g>
        </g>
    </g>
</svg>