<svg width="130" height="38" xmlns="http://www.w3.org/2000/svg"><g fill="none" fill-rule="evenodd"><path fill="#AAA" d="M0 0h65v38H0z"/><path d="M0 2h1v36H0V2zm0-2h65v2H0V0zm6 6h51v22H6V6z" fill="#FFF" fill-rule="nonzero"/><path d="M27 14h3v4h-3v-4zm3 0h6v2h-6v-2zm1 2h1v2h-1v-2zm2 0h1v2h-1v-2zm2 0h1v2h-1v-2zm3-2h1v6h-1v-6zm-14 0h1v6h-1v-6zm1 6h13v2H25v-2zm-14 4h44v2H11v-2zm43-12h1v12h-1V12zM8 8h47v2H8V8zm0 2h2v2H8v-2zm0 2h1v14H8V12zm49-4h1v22h-1V8z" fill="#000" fill-rule="nonzero"/><path fill="#000" d="M8 28h50v2H8z"/><path fill="#000" d="M64.5 38h.5V2h-1v34H1v2z"/><g><path fill="#AAA" d="M65 0h65v38H65z"/><path d="M66 2h63v34H66z"/><path d="M70 14h53v18H70V14zm52-6h1v6h-1V8z" fill="#000" fill-rule="nonzero"/><path fill="#FFF" d="M71 16h51v14H71z"/><path d="M89 20h1v6h-1v-6zm14 0h1v6h-1v-6zm-13 6h13v2H90v-2zm2-6h9v2h-9v-2zm0 2h3v2h-3v-2zm4 0h1v2h-1v-2zm2 0h1v2h-1v-2zm2 0h1v2h-1v-2zm23-4h1v16h-1V18zm2 4h1v12h-1V22zM75 32h1v2h-1v-2zm2 0h1v2h-1v-2zm2 0h1v2h-1v-2zm2 0h1v2h-1v-2zm2 0h1v2h-1v-2zm2 0h1v2h-1v-2zm2 0h1v2h-1v-2zm2 0h1v2h-1v-2zm2 0h1v2h-1v-2zm2 0h1v2h-1v-2zm2 0h1v2h-1v-2zm2 0h1v2h-1v-2zm2 0h1v2h-1v-2zm2 0h1v2h-1v-2zm2 0h1v2h-1v-2zm2 0h1v2h-1v-2zm2 0h1v2h-1v-2zm2 0h1v2h-1v-2zm2 0h1v2h-1v-2zm2 0h1v2h-1v-2zm2 0h1v2h-1v-2zm2 0h1v2h-1v-2zm2 0h1v2h-1v-2zm2 0h1v2h-1v-2z" fill="#000" fill-rule="nonzero"/><path fill="#FFF" d="M71 6h51v6H71z"/><path d="M73.98 10h45.04v2H73.98v-2zM73 12h47v2H73v-2zm46.02-2h.98v2h-.98v-2z" fill="#D8D8D8" fill-rule="nonzero"/><path d="M73 8h47v2H73V8zm-1 2h2v2h-2v-2zm-1 2h2v2h-2v-2z" fill="#000" fill-rule="nonzero"/><path d="M74 10h47v2H74v-2zm-1 2h49v2H73v-2z" fill="#AAA" fill-rule="nonzero"/><path d="M74 12h1v2h-1v-2zm1-2h1v2h-1v-2zm1 2h1v2h-1v-2zm1-2h1v2h-1v-2zm1 2h1v2h-1v-2zm1-2h1v2h-1v-2zm1 2h1v2h-1v-2zm1-2h1v2h-1v-2zm1 2h1v2h-1v-2zm1-2h1v2h-1v-2zm1 2h1v2h-1v-2zm1-2h1v2h-1v-2zm1 2h1v2h-1v-2zm1-2h1v2h-1v-2zm1 2h1v2h-1v-2zm1-2h1v2h-1v-2zm1 2h1v2h-1v-2zm1-2h1v2h-1v-2zm1 2h1v2h-1v-2zm1-2h1v2h-1v-2zm1 2h1v2h-1v-2zm1-2h1v2h-1v-2zm1 2h1v2h-1v-2zm1-2h1v2h-1v-2zm1 2h1v2h-1v-2zm1-2h1v2h-1v-2zm1 2h1v2h-1v-2zm1-2h1v2h-1v-2zm1 2h1v2h-1v-2zm1-2h1v2h-1v-2zm1 2h1v2h-1v-2zm1-2h1v2h-1v-2zm1 2h1v2h-1v-2zm1-2h1v2h-1v-2zm1 2h1v2h-1v-2zm1-2h1v2h-1v-2zm1 2h1v2h-1v-2zm1-2h1v2h-1v-2zm1 2h1v2h-1v-2zm1-2h1v2h-1v-2zm1 2h1v2h-1v-2zm1-2h1v2h-1v-2zm1 2h1v2h-1v-2zm1-2h1v2h-1v-2zm1 2h1v2h-1v-2zm2 0h1v2h-1v-2zm-1-2h1v2h-1v-2z" fill="#6687BA" fill-rule="nonzero"/><path d="M121 12h1v2h-1v-2zm-1-2h1v2h-1v-2zM65 0h65v2H65V0zm0 2h1v36h-1V2z" fill="#000" fill-rule="nonzero"/><path d="M66 36h63v2H66v-2zm63-34h1v36h-1V2z" fill="#FFF" fill-rule="nonzero"/></g></g></svg>
