<?xml version="1.0" encoding="UTF-8"?>
<svg width="32px" height="32px" viewBox="0 0 32 32" version="1.1" xmlns="http://www.w3.org/2000/svg" xmlns:xlink="http://www.w3.org/1999/xlink">
    <!-- Generator: Sketch 53.2 (72643) - https://sketchapp.com -->
    <title>clock</title>
    <desc>Created with Sketch.</desc>
    <g id="Page-1" stroke="none" stroke-width="1" fill="none" fill-rule="evenodd">
        <g id="symbols" transform="translate(-210.000000, -206.000000)">
            <g id="clock" transform="translate(210.000000, 206.000000)">
                <g>
                    <g>
                        <path d="M26,22 L26,26 L24,26 L24,28 L20,28 L20,30 L10,30 L10,28 L6,28 L6,26 L4,26 L4,22 L2,22 L2,16 L4,16 L4,12 L6,12 L6,10 L10,10 L10,8 L20,8 L20,10 L24,10 L24,12 L26,12 L26,16 L28,16 L28,22 L26,22 Z" id="Combined-Shape" fill="#EEEECC"></path>
                        <path d="M12,2 L12,0 L14,0 L20,0 L20,4 L18,4 L18,6 L22,6 L22,8 L26,8 L26,10 L28,10 L28,12 L30,12 L30,16 L32,16 L32,22 L30,22 L30,26 L28,26 L28,28 L26,28 L26,30 L22,30 L22,32 L10,32 L10,30 L20,30 L20,28 L24,28 L24,26 L26,26 L26,22 L28,22 L28,16 L26,16 L26,12 L24,12 L24,10 L20,10 L20,8 L14,8 L12,8 L10,8 L10,6 L12,6 L12,4 L10,4 L10,2 L12,2 Z M14,6 L16,6 L16,4 L14,4 L14,6 Z M6,28 L10,28 L10,30 L6,30 L6,28 Z M4,26 L6,26 L6,28 L4,28 L4,26 Z M2,22 L4,22 L4,26 L2,26 L2,22 Z M0,16 L2,16 L2,22 L0,22 L0,16 Z M2,12 L4,12 L4,16 L2,16 L2,12 Z M4,10 L6,10 L6,12 L4,12 L4,10 Z M6,8 L10,8 L10,10 L6,10 L6,8 Z" id="Combined-Shape" fill="#000000"></path>
                        <path d="M16,16 L18,16 L18,18 L16,18 L16,16 Z M18,14 L20,14 L20,16 L18,16 L18,14 Z M20,12 L22,12 L22,14 L20,14 L20,12 Z M22,10 L24,10 L24,12 L22,12 L22,10 Z" id="Combined-Shape" fill="#EE4444"></path>
                        <path d="M10,0 L12,0 L12,2 L10,2 L10,0 Z M14,4 L16,4 L16,6 L14,6 L14,4 Z" id="Combined-Shape" fill="#EEEECC"></path>
                        <rect id="Rectangle-430" fill="#000000" x="14" y="18" width="2" height="2"></rect>
                    </g>
                </g>
            </g>
        </g>
    </g>
</svg>