<?xml version="1.0" encoding="UTF-8"?>
<svg width="22px" height="22px" viewBox="0 0 22 22" version="1.1" xmlns="http://www.w3.org/2000/svg" xmlns:xlink="http://www.w3.org/1999/xlink">
    <!-- Generator: Sketch 53.2 (72643) - https://sketchapp.com -->
    <title>Group 2</title>
    <desc>Created with Sketch.</desc>
    <g id="Page-1" stroke="none" stroke-width="1" fill="none" fill-rule="evenodd">
        <g id="symbols" transform="translate(-159.000000, -211.000000)">
            <g id="Group-2" transform="translate(159.000000, 211.000000)">
                <path d="M2,0 L4,0 L4,2 L2,2 L2,0 Z M4,2 L8,2 L8,4 L4,4 L4,2 Z M8,4 L12,4 L12,6 L8,6 L8,4 Z M12,6 L16,6 L16,8 L12,8 L12,6 Z M16,8 L20,8 L20,10 L16,10 L16,8 Z M14,12 L16,12 L16,14 L14,14 L14,12 Z M16,14 L18,14 L18,16 L16,16 L16,14 Z M18,16 L20,16 L20,18 L18,18 L18,16 Z M20,18 L22,18 L22,20 L20,20 L20,18 Z" id="Combined-Shape" fill="#EBF3D6"></path>
                <path d="M8,16 L10,16 L10,20 L7,20 L7,16 L6,16 L6,12 L8,12 L8,16 Z M0,2 L2,2 L2,4 L0,4 L0,2 Z M2,4 L4,4 L4,8 L2,8 L2,4 Z M4,8 L6,8 L6,12 L4,12 L4,8 Z M12,14 L14,14 L14,16 L12,16 L12,14 Z M14,16 L16,16 L16,18 L14,18 L14,16 Z M16,18 L18,18 L18,20 L16,20 L16,18 Z M18,20 L20,20 L20,22 L18,22 L18,20 Z" id="Combined-Shape" fill="#000000"></path>
                <g id="pointer" fill="#E75D55">
                    <path d="M16,12 L14,12 L14,14 L12,14 L12,16 L12,20 L10,20 L10,16 L8,16 L8,12 L6,12 L6,8 L4,8 L4,4 L8,4 L8,6 L12,6 L12,8 L16,8 L16,10 L20,10 L20,12 L16,12 Z M0,0 L2,0 L2,2 L0,2 L0,0 Z M2,2 L4,2 L4,4 L2,4 L2,2 Z M14,14 L16,14 L16,16 L14,16 L14,14 Z M16,16 L18,16 L18,18 L16,18 L16,16 Z M18,18 L20,18 L20,20 L18,20 L18,18 Z M20,20 L22,20 L22,22 L20,22 L20,20 Z" id="Combined-Shape"></path>
                </g>
            </g>
        </g>
    </g>
</svg>