<svg width="134" height="120" xmlns="http://www.w3.org/2000/svg"><g fill="none" fill-rule="evenodd"><path d="M18 2V0h16v41h2v1H16v-2h-2V2h4z" fill="#202060"/><path d="M128 6V4h2v2h2v2h2v112H0V4h2V2h2V0h10v40h2v2h86v-1h2V2h2V0h20v2h2v4zm0 2h4z" fill="#203080"/><path d="M16 54v-2h104v2h2v66H14V54h2zM4 110h6v4H4z" fill="#202060"/><path d="M102 41v1H36v-1h-2V0h70v41h-2z" fill="#948976"/><path fill="#202060" d="M75 8h14v30H75z"/><path d="M18 58v-4h100v4h2v62H16V58h2z" fill="#FFF"/><path d="M6 8V6h2v2h1v2h1v2H8v4H6v-4H4v-2h1V8h1z" fill="#202060"/></g></svg>
